<svg id="visual" viewBox="0 0 960 540" width="960" height="540" xmlns="http://www.w3.org/2000/svg" xmlns:xlink="http://www.w3.org/1999/xlink" version="1.1"><rect x="0" y="0" width="960" height="540" fill="#071013"></rect><defs><linearGradient id="grad1_0" x1="43.8%" y1="0%" x2="100%" y2="100%"><stop offset="14.444444444444446%" stop-color="#23b5d3" stop-opacity="1"></stop><stop offset="85.55555555555554%" stop-color="#23b5d3" stop-opacity="1"></stop></linearGradient></defs><defs><linearGradient id="grad1_1" x1="43.8%" y1="0%" x2="100%" y2="100%"><stop offset="14.444444444444446%" stop-color="#23b5d3" stop-opacity="1"></stop><stop offset="85.55555555555554%" stop-color="#25788d" stop-opacity="1"></stop></linearGradient></defs><defs><linearGradient id="grad1_2" x1="43.8%" y1="0%" x2="100%" y2="100%"><stop offset="14.444444444444446%" stop-color="#1c414d" stop-opacity="1"></stop><stop offset="85.55555555555554%" stop-color="#25788d" stop-opacity="1"></stop></linearGradient></defs><defs><linearGradient id="grad1_3" x1="43.8%" y1="0%" x2="100%" y2="100%"><stop offset="14.444444444444446%" stop-color="#1c414d" stop-opacity="1"></stop><stop offset="85.55555555555554%" stop-color="#071013" stop-opacity="1"></stop></linearGradient></defs><defs><linearGradient id="grad2_0" x1="0%" y1="0%" x2="56.3%" y2="100%"><stop offset="14.444444444444446%" stop-color="#23b5d3" stop-opacity="1"></stop><stop offset="85.55555555555554%" stop-color="#23b5d3" stop-opacity="1"></stop></linearGradient></defs><defs><linearGradient id="grad2_1" x1="0%" y1="0%" x2="56.3%" y2="100%"><stop offset="14.444444444444446%" stop-color="#25788d" stop-opacity="1"></stop><stop offset="85.55555555555554%" stop-color="#23b5d3" stop-opacity="1"></stop></linearGradient></defs><defs><linearGradient id="grad2_2" x1="0%" y1="0%" x2="56.3%" y2="100%"><stop offset="14.444444444444446%" stop-color="#25788d" stop-opacity="1"></stop><stop offset="85.55555555555554%" stop-color="#1c414d" stop-opacity="1"></stop></linearGradient></defs><defs><linearGradient id="grad2_3" x1="0%" y1="0%" x2="56.3%" y2="100%"><stop offset="14.444444444444446%" stop-color="#071013" stop-opacity="1"></stop><stop offset="85.55555555555554%" stop-color="#1c414d" stop-opacity="1"></stop></linearGradient></defs><g transform="translate(960, 0)"><path d="M0 324C-43.1 292.6 -86.2 261.2 -137.5 238.2C-188.8 215.1 -248.2 200.3 -280.6 162C-313 123.7 -318.5 61.8 -324 0L0 0Z" fill="#15282f"></path><path d="M0 243C-32.3 219.5 -64.7 195.9 -103.1 178.6C-141.6 161.3 -186.1 150.2 -210.4 121.5C-234.8 92.8 -238.9 46.4 -243 0L0 0Z" fill="#225c6c"></path><path d="M0 162C-21.6 146.3 -43.1 130.6 -68.7 119.1C-94.4 107.5 -124.1 100.2 -140.3 81C-156.5 61.8 -159.3 30.9 -162 0L0 0Z" fill="#2696b0"></path><path d="M0 81C-10.8 73.2 -21.6 65.3 -34.4 59.5C-47.2 53.8 -62 50.1 -70.1 40.5C-78.3 30.9 -79.6 15.5 -81 0L0 0Z" fill="#23b5d3"></path></g><g transform="translate(0, 540)"><path d="M0 -324C65.2 -320.4 130.4 -316.9 162 -280.6C193.6 -244.3 191.6 -175.2 213 -123C234.4 -70.8 279.2 -35.4 324 0L0 0Z" fill="#15282f"></path><path d="M0 -243C48.9 -240.3 97.8 -237.7 121.5 -210.4C145.2 -183.2 143.7 -131.4 159.8 -92.3C175.8 -53.1 209.4 -26.5 243 0L0 0Z" fill="#225c6c"></path><path d="M0 -162C32.6 -160.2 65.2 -158.4 81 -140.3C96.8 -122.1 95.8 -87.6 106.5 -61.5C117.2 -35.4 139.6 -17.7 162 0L0 0Z" fill="#2696b0"></path><path d="M0 -81C16.3 -80.1 32.6 -79.2 40.5 -70.1C48.4 -61.1 47.9 -43.8 53.3 -30.8C58.6 -17.7 69.8 -8.8 81 0L0 0Z" fill="#23b5d3"></path></g></svg>