<svg id="visual" viewBox="0 0 960 540" width="960" height="540" xmlns="http://www.w3.org/2000/svg" xmlns:xlink="http://www.w3.org/1999/xlink" version="1.1"><rect x="0" y="0" width="960" height="540" fill="#071013"></rect><defs><linearGradient id="grad1_0" x1="43.8%" y1="0%" x2="100%" y2="100%"><stop offset="14.444444444444446%" stop-color="#23b5d3" stop-opacity="1"></stop><stop offset="85.55555555555554%" stop-color="#23b5d3" stop-opacity="1"></stop></linearGradient></defs><defs><linearGradient id="grad1_1" x1="43.8%" y1="0%" x2="100%" y2="100%"><stop offset="14.444444444444446%" stop-color="#23b5d3" stop-opacity="1"></stop><stop offset="85.55555555555554%" stop-color="#2690a9" stop-opacity="1"></stop></linearGradient></defs><defs><linearGradient id="grad1_2" x1="43.8%" y1="0%" x2="100%" y2="100%"><stop offset="14.444444444444446%" stop-color="#246d80" stop-opacity="1"></stop><stop offset="85.55555555555554%" stop-color="#2690a9" stop-opacity="1"></stop></linearGradient></defs><defs><linearGradient id="grad1_3" x1="43.8%" y1="0%" x2="100%" y2="100%"><stop offset="14.444444444444446%" stop-color="#246d80" stop-opacity="1"></stop><stop offset="85.55555555555554%" stop-color="#1f4c59" stop-opacity="1"></stop></linearGradient></defs><defs><linearGradient id="grad1_4" x1="43.8%" y1="0%" x2="100%" y2="100%"><stop offset="14.444444444444446%" stop-color="#162d34" stop-opacity="1"></stop><stop offset="85.55555555555554%" stop-color="#1f4c59" stop-opacity="1"></stop></linearGradient></defs><defs><linearGradient id="grad1_5" x1="43.8%" y1="0%" x2="100%" y2="100%"><stop offset="14.444444444444446%" stop-color="#162d34" stop-opacity="1"></stop><stop offset="85.55555555555554%" stop-color="#071013" stop-opacity="1"></stop></linearGradient></defs><defs><linearGradient id="grad2_0" x1="0%" y1="0%" x2="56.3%" y2="100%"><stop offset="14.444444444444446%" stop-color="#23b5d3" stop-opacity="1"></stop><stop offset="85.55555555555554%" stop-color="#23b5d3" stop-opacity="1"></stop></linearGradient></defs><defs><linearGradient id="grad2_1" x1="0%" y1="0%" x2="56.3%" y2="100%"><stop offset="14.444444444444446%" stop-color="#2690a9" stop-opacity="1"></stop><stop offset="85.55555555555554%" stop-color="#23b5d3" stop-opacity="1"></stop></linearGradient></defs><defs><linearGradient id="grad2_2" x1="0%" y1="0%" x2="56.3%" y2="100%"><stop offset="14.444444444444446%" stop-color="#2690a9" stop-opacity="1"></stop><stop offset="85.55555555555554%" stop-color="#246d80" stop-opacity="1"></stop></linearGradient></defs><defs><linearGradient id="grad2_3" x1="0%" y1="0%" x2="56.3%" y2="100%"><stop offset="14.444444444444446%" stop-color="#1f4c59" stop-opacity="1"></stop><stop offset="85.55555555555554%" stop-color="#246d80" stop-opacity="1"></stop></linearGradient></defs><defs><linearGradient id="grad2_4" x1="0%" y1="0%" x2="56.3%" y2="100%"><stop offset="14.444444444444446%" stop-color="#1f4c59" stop-opacity="1"></stop><stop offset="85.55555555555554%" stop-color="#162d34" stop-opacity="1"></stop></linearGradient></defs><defs><linearGradient id="grad2_5" x1="0%" y1="0%" x2="56.3%" y2="100%"><stop offset="14.444444444444446%" stop-color="#071013" stop-opacity="1"></stop><stop offset="85.55555555555554%" stop-color="#162d34" stop-opacity="1"></stop></linearGradient></defs><g transform="translate(960, 0)"><path d="M0 513C-66.8 506.5 -133.7 500 -196.3 474C-259 447.9 -317.4 402.4 -346.5 346.5C-375.6 290.6 -375.3 224.4 -398.2 164.9C-421.1 105.5 -467 52.7 -513 0L0 0Z" fill="#111f23"></path><path d="M0 427.5C-55.7 422.1 -111.4 416.7 -163.6 395C-215.8 373.3 -264.5 335.3 -288.7 288.7C-313 242.2 -312.8 187 -331.8 137.4C-350.9 87.9 -389.2 43.9 -427.5 0L0 0Z" fill="#1b3c46"></path><path d="M0 342C-44.6 337.7 -89.1 333.3 -130.9 316C-172.6 298.6 -211.6 268.2 -231 231C-250.4 193.7 -250.2 149.6 -265.5 110C-280.7 70.3 -311.4 35.2 -342 0L0 0Z" fill="#225c6c"></path><path d="M0 256.5C-33.4 253.2 -66.8 250 -98.2 237C-129.5 224 -158.7 201.2 -173.2 173.2C-187.8 145.3 -187.7 112.2 -199.1 82.5C-210.5 52.7 -233.5 26.4 -256.5 0L0 0Z" fill="#257e94"></path><path d="M0 171C-22.3 168.8 -44.6 166.7 -65.4 158C-86.3 149.3 -105.8 134.1 -115.5 115.5C-125.2 96.9 -125.1 74.8 -132.7 55C-140.4 35.2 -155.7 17.6 -171 0L0 0Z" fill="#25a2be"></path><path d="M0 85.5C-11.1 84.4 -22.3 83.3 -32.7 79C-43.2 74.7 -52.9 67.1 -57.7 57.7C-62.6 48.4 -62.6 37.4 -66.4 27.5C-70.2 17.6 -77.8 8.8 -85.5 0L0 0Z" fill="#23b5d3"></path></g><g transform="translate(0, 540)"><path d="M0 -513C68.9 -507.6 137.8 -502.3 196.3 -474C254.8 -445.6 303 -394.3 342.9 -342.9C382.9 -291.6 414.6 -240.1 441.6 -182.9C468.6 -125.8 490.8 -62.9 513 0L0 0Z" fill="#111f23"></path><path d="M0 -427.5C57.4 -423 114.8 -418.6 163.6 -395C212.4 -371.4 252.5 -328.6 285.8 -285.8C319.1 -243 345.5 -200.1 368 -152.4C390.5 -104.8 409 -52.4 427.5 0L0 0Z" fill="#1b3c46"></path><path d="M0 -342C45.9 -338.4 91.9 -334.9 130.9 -316C169.9 -297.1 202 -262.9 228.6 -228.6C255.3 -194.4 276.4 -160.1 294.4 -121.9C312.4 -83.8 327.2 -41.9 342 0L0 0Z" fill="#225c6c"></path><path d="M0 -256.5C34.4 -253.8 68.9 -251.1 98.2 -237C127.4 -222.8 151.5 -197.2 171.5 -171.5C191.4 -145.8 207.3 -120 220.8 -91.5C234.3 -62.9 245.4 -31.4 256.5 0L0 0Z" fill="#257e94"></path><path d="M0 -171C23 -169.2 45.9 -167.4 65.4 -158C84.9 -148.5 101 -131.4 114.3 -114.3C127.6 -97.2 138.2 -80 147.2 -61C156.2 -41.9 163.6 -21 171 0L0 0Z" fill="#25a2be"></path><path d="M0 -85.5C11.5 -84.6 23 -83.7 32.7 -79C42.5 -74.3 50.5 -65.7 57.2 -57.2C63.8 -48.6 69.1 -40 73.6 -30.5C78.1 -21 81.8 -10.5 85.5 0L0 0Z" fill="#23b5d3"></path></g></svg>